{
  "accessors": [
    {
      "name": "car121_1_0_positions",
      "componentType": 5126,
      "count": 285,
      "min": [
        -231.9499969482422,
        0.21729999780654907,
        -80.89179992675781
      ],
      "max": [
        -229.92869567871094,
        1.3387999534606934,
        -76.00679779052734
      ],
      "type": "VEC3",
      "bufferView": 0,
      "byteOffset": 0
    },
    {
      "name": "car121_1_0_normals",
      "componentType": 5126,
      "count": 285,
      "min": [
        -0.9995085597038269,
        -0.45940738916397095,
        -0.9987847805023193
      ],
      "max": [
        0.9995735883712769,
        0.999841034412384,
        0.9988744258880615
      ],
      "type": "VEC3",
      "bufferView": 1,
      "byteOffset": 0
    },
    {
      "name": "car121_1_0_texcoords",
      "componentType": 5126,
      "count": 285,
      "min": [
        0.00139999995008111,
        0.0008999999845400453
      ],
      "max": [
        0.9973000288009644,
        0.9994999766349792
      ],
      "type": "VEC2",
      "bufferView": 2,
      "byteOffset": 0
    },
    {
      "name": "car121_1_0_indices",
      "componentType": 5123,
      "count": 1332,
      "min": [
        0
      ],
      "max": [
        284
      ],
      "type": "SCALAR",
      "bufferView": 3,
      "byteOffset": 0
    },
    {
      "name": "car121_1_1_positions",
      "componentType": 5126,
      "count": 172,
      "min": [
        -232.031494140625,
        0.1932000070810318,
        -80.78800201416016
      ],
      "max": [
        -229.8730926513672,
        1.0333000421524048,
        -76.01860046386719
      ],
      "type": "VEC3",
      "bufferView": 0,
      "byteOffset": 3420
    },
    {
      "name": "car121_1_1_normals",
      "componentType": 5126,
      "count": 172,
      "min": [
        -0.9999997615814209,
        -0.9999777674674988,
        -0.9999843239784241
      ],
      "max": [
        0.9999206066131592,
        0.999961256980896,
        0.9979164004325867
      ],
      "type": "VEC3",
      "bufferView": 1,
      "byteOffset": 3420
    },
    {
      "name": "car121_1_1_texcoords",
      "componentType": 5126,
      "count": 172,
      "min": [
        0.03180000185966492,
        0.20990000665187836
      ],
      "max": [
        0.9146000146865845,
        0.9804999828338623
      ],
      "type": "VEC2",
      "bufferView": 2,
      "byteOffset": 2280
    },
    {
      "name": "car121_1_1_indices",
      "componentType": 5123,
      "count": 312,
      "min": [
        0
      ],
      "max": [
        171
      ],
      "type": "SCALAR",
      "bufferView": 3,
      "byteOffset": 2664
    },
    {
      "name": "car121_1_2_positions",
      "componentType": 5126,
      "count": 264,
      "min": [
        -231.58839416503906,
        0.36640000343322754,
        -79.70089721679688
      ],
      "max": [
        -230.27780151367188,
        1.1505000591278076,
        -77.3573989868164
      ],
      "type": "VEC3",
      "bufferView": 0,
      "byteOffset": 5484
    },
    {
      "name": "car121_1_2_normals",
      "componentType": 5126,
      "count": 264,
      "min": [
        -0.9990786910057068,
        -0.979917049407959,
        -0.9964827299118042
      ],
      "max": [
        0.9987099766731262,
        0.9799174666404724,
        0.9797806739807129
      ],
      "type": "VEC3",
      "bufferView": 1,
      "byteOffset": 5484
    },
    {
      "name": "car121_1_2_texcoords",
      "componentType": 5126,
      "count": 264,
      "min": [
        -1.3731000423431396,
        -0.2224999964237213
      ],
      "max": [
        2.3115999698638916,
        1.2081999778747559
      ],
      "type": "VEC2",
      "bufferView": 2,
      "byteOffset": 3656
    },
    {
      "name": "car121_1_2_indices",
      "componentType": 5123,
      "count": 768,
      "min": [
        0
      ],
      "max": [
        263
      ],
      "type": "SCALAR",
      "bufferView": 3,
      "byteOffset": 3288
    },
    {
      "name": "car121_1_3_positions",
      "componentType": 5126,
      "count": 22,
      "min": [
        -231.15370178222656,
        0.3172000050544739,
        -80.87210083007812
      ],
      "max": [
        -230.76060485839844,
        0.5072000026702881,
        -75.99970245361328
      ],
      "type": "VEC3",
      "bufferView": 0,
      "byteOffset": 8652
    },
    {
      "name": "car121_1_3_normals",
      "componentType": 5126,
      "count": 22,
      "min": [
        -0.03320092707872391,
        -0.26559311151504517,
        -0.9999843239784241
      ],
      "max": [
        0.04350125789642334,
        0,
        0.9834224581718445
      ],
      "type": "VEC3",
      "bufferView": 1,
      "byteOffset": 8652
    },
    {
      "name": "car121_1_3_texcoords",
      "componentType": 5126,
      "count": 22,
      "min": [
        0.07349999994039536,
        0.020400000736117363
      ],
      "max": [
        0.9363999962806702,
        0.9749000072479248
      ],
      "type": "VEC2",
      "bufferView": 2,
      "byteOffset": 5768
    },
    {
      "name": "car121_1_3_indices",
      "componentType": 5123,
      "count": 54,
      "min": [
        0
      ],
      "max": [
        21
      ],
      "type": "SCALAR",
      "bufferView": 3,
      "byteOffset": 4824
    },
    {
      "name": "car121_1_4_positions",
      "componentType": 5126,
      "count": 184,
      "min": [
        -231.9340057373047,
        0.002400000113993883,
        -80.01640319824219
      ],
      "max": [
        -229.968994140625,
        0.6205999851226807,
        -76.76380157470703
      ],
      "type": "VEC3",
      "bufferView": 0,
      "byteOffset": 8916
    },
    {
      "name": "car121_1_4_normals",
      "componentType": 5126,
      "count": 184,
      "min": [
        -0.005599925760179758,
        -0.9898231029510498,
        -0.9999843239784241
      ],
      "max": [
        0.005599925760179758,
        0.9898231029510498,
        0.9999843239784241
      ],
      "type": "VEC3",
      "bufferView": 1,
      "byteOffset": 8916
    },
    {
      "name": "car121_1_4_texcoords",
      "componentType": 5126,
      "count": 184,
      "min": [
        -0.18790000677108765,
        0.0005000000237487257
      ],
      "max": [
        3.9423999786376953,
        0.9994999766349792
      ],
      "type": "VEC2",
      "bufferView": 2,
      "byteOffset": 5944
    },
    {
      "name": "car121_1_4_indices",
      "componentType": 5123,
      "count": 528,
      "min": [
        0
      ],
      "max": [
        183
      ],
      "type": "SCALAR",
      "bufferView": 3,
      "byteOffset": 4932
    },
    {
      "name": "car121_1_5_positions",
      "componentType": 5126,
      "count": 184,
      "min": [
        -231.9340057373047,
        0.002400000113993883,
        -80.01640319824219
      ],
      "max": [
        -229.9694061279297,
        0.6205999851226807,
        -76.76380157470703
      ],
      "type": "VEC3",
      "bufferView": 0,
      "byteOffset": 11124
    },
    {
      "name": "car121_1_5_normals",
      "componentType": 5126,
      "count": 184,
      "min": [
        -0.999984085559845,
        -0.0006999888573773205,
        -0.005599910859018564
      ],
      "max": [
        0.999984085559845,
        0.0006999888573773205,
        0.005599910859018564
      ],
      "type": "VEC3",
      "bufferView": 1,
      "byteOffset": 11124
    },
    {
      "name": "car121_1_5_texcoords",
      "componentType": 5126,
      "count": 184,
      "min": [
        0.006099999882280827,
        0.01140000019222498
      ],
      "max": [
        0.9907000064849854,
        0.9939000010490417
      ],
      "type": "VEC2",
      "bufferView": 2,
      "byteOffset": 7416
    },
    {
      "name": "car121_1_5_indices",
      "componentType": 5123,
      "count": 528,
      "min": [
        0
      ],
      "max": [
        183
      ],
      "type": "SCALAR",
      "bufferView": 3,
      "byteOffset": 5988
    }
  ],
  "asset": {
    "generator": "obj2gltf",
    "version": "2.0"
  },
  "buffers": [
    {
      "name": "HSQC",
      "byteLength": 1364632,
      "uri": "data:application/octet-stream;base64,"
    }
  ],
  "bufferViews": [
    {
      "name": "bufferView_0",
      "buffer": 0,
      "byteLength": 13332,
      "byteOffset": 0,
      "byteStride": 12,
      "target": 34962
    },
    {
      "name": "bufferView_1",
      "buffer": 0,
      "byteLength": 13332,
      "byteOffset": 13332,
      "byteStride": 12,
      "target": 34962
    },
    {
      "name": "bufferView_2",
      "buffer": 0,
      "byteLength": 8888,
      "byteOffset": 26664,
      "byteStride": 8,
      "target": 34962
    },
    {
      "name": "bufferView_3",
      "buffer": 0,
      "byteLength": 7044,
      "byteOffset": 35552,
      "target": 34963
    },
    {
      "buffer": 0,
      "byteOffset": 42596,
      "byteLength": 1228309
    },
    {
      "buffer": 0,
      "byteOffset": 1270905,
      "byteLength": 42342
    },
    {
      "buffer": 0,
      "byteOffset": 1313247,
      "byteLength": 15045
    },
    {
      "buffer": 0,
      "byteOffset": 1328292,
      "byteLength": 23307
    },
    {
      "buffer": 0,
      "byteOffset": 1351599,
      "byteLength": 13033
    }
  ],
  "images": [
    {
      "name": "68body",
      "mimeType": "image/png",
      "bufferView": 4
    },
    {
      "name": "68fabric",
      "mimeType": "image/jpeg",
      "bufferView": 5
    },
    {
      "name": "68rek",
      "mimeType": "image/jpeg",
      "bufferView": 6
    },
    {
      "name": "68tyresf",
      "mimeType": "image/jpeg",
      "bufferView": 7
    },
    {
      "name": "68tyre",
      "mimeType": "image/jpeg",
      "bufferView": 8
    }
  ],
  "materials": [
    {
      "name": "68body",
      "pbrMetallicRoughness": {
        "baseColorTexture": {
          "index": 0
        },
        "baseColorFactor": [
          1,
          1,
          1,
          1
        ],
        "metallicFactor": 0,
        "roughnessFactor": 0.99
      },
      "emissiveFactor": [
        0,
        0,
        0
      ],
      "alphaMode": "BLEND",
      "doubleSided": true
    },
    {
      "name": "68basic",
      "pbrMetallicRoughness": {
        "baseColorFactor": [
          0.1529,
          0.1529,
          0.1529,
          1
        ],
        "metallicFactor": 0,
        "roughnessFactor": 0.99
      },
      "emissiveFactor": [
        0,
        0,
        0
      ],
      "alphaMode": "OPAQUE",
      "doubleSided": false
    },
    {
      "name": "68FABRIC",
      "pbrMetallicRoughness": {
        "baseColorTexture": {
          "index": 1
        },
        "baseColorFactor": [
          1,
          1,
          1,
          1
        ],
        "metallicFactor": 0,
        "roughnessFactor": 0.99
      },
      "emissiveFactor": [
        0,
        0,
        0
      ],
      "alphaMode": "OPAQUE",
      "doubleSided": false
    },
    {
      "name": "68REK",
      "pbrMetallicRoughness": {
        "baseColorTexture": {
          "index": 2
        },
        "baseColorFactor": [
          1,
          1,
          1,
          1
        ],
        "metallicFactor": 0,
        "roughnessFactor": 0.931125
      },
      "emissiveFactor": [
        0,
        0,
        0
      ],
      "alphaMode": "OPAQUE",
      "doubleSided": false
    },
    {
      "name": "68tyresf",
      "pbrMetallicRoughness": {
        "baseColorTexture": {
          "index": 3
        },
        "baseColorFactor": [
          1,
          1,
          1,
          1
        ],
        "metallicFactor": 0,
        "roughnessFactor": 0.99
      },
      "emissiveFactor": [
        0,
        0,
        0
      ],
      "alphaMode": "OPAQUE",
      "doubleSided": false
    },
    {
      "name": "68tyre",
      "pbrMetallicRoughness": {
        "baseColorTexture": {
          "index": 4
        },
        "baseColorFactor": [
          1,
          1,
          1,
          1
        ],
        "metallicFactor": 0,
        "roughnessFactor": 0.99
      },
      "emissiveFactor": [
        0,
        0,
        0
      ],
      "alphaMode": "OPAQUE",
      "doubleSided": false
    }
  ],
  "meshes": [
    {
      "name": "car121_1",
      "primitives": [
        {
          "attributes": {
            "POSITION": 0,
            "NORMAL": 1,
            "TEXCOORD_0": 2
          },
          "indices": 3,
          "material": 0,
          "mode": 4
        },
        {
          "attributes": {
            "POSITION": 4,
            "NORMAL": 5,
            "TEXCOORD_0": 6
          },
          "indices": 7,
          "material": 1,
          "mode": 4
        },
        {
          "attributes": {
            "POSITION": 8,
            "NORMAL": 9,
            "TEXCOORD_0": 10
          },
          "indices": 11,
          "material": 2,
          "mode": 4
        },
        {
          "attributes": {
            "POSITION": 12,
            "NORMAL": 13,
            "TEXCOORD_0": 14
          },
          "indices": 15,
          "material": 3,
          "mode": 4
        },
        {
          "attributes": {
            "POSITION": 16,
            "NORMAL": 17,
            "TEXCOORD_0": 18
          },
          "indices": 19,
          "material": 4,
          "mode": 4
        },
        {
          "attributes": {
            "POSITION": 20,
            "NORMAL": 21,
            "TEXCOORD_0": 22
          },
          "indices": 23,
          "material": 5,
          "mode": 4
        }
      ]
    }
  ],
  "nodes": [
    {
      "name": "car121",
      "mesh": 0
    }
  ],
  "samplers": [
    {
      "wrapS": 10497,
      "wrapT": 10497
    }
  ],
  "scene": 0,
  "scenes": [
    {
      "nodes": [
        0
      ]
    }
  ],
  "textures": [
    {
      "name": "68body",
      "sampler": 0,
      "source": 0
    },
    {
      "name": "68fabric",
      "sampler": 0,
      "source": 1
    },
    {
      "name": "68rek",
      "sampler": 0,
      "source": 2
    },
    {
      "name": "68tyresf",
      "sampler": 0,
      "source": 3
    },
    {
      "name": "68tyre",
      "sampler": 0,
      "source": 4
    }
  ]
}
